<svg width="18" height="16" viewBox="0 0 18 16" fill="none" xmlns="http://www.w3.org/2000/svg">
<path d="M3.02615 14.5891C2.93666 14.5891 2.85083 14.5554 2.78755 14.4954C2.72426 14.4354 2.68871 14.354 2.68871 14.2691V11.008C0.978573 9.80896 0 8.128 0 6.37344C0 2.8592 3.8495 0 8.58107 0C13.3126 0 17.1621 2.8592 17.1621 6.37344C17.1621 9.88768 13.313 12.7469 8.58107 12.7469C7.55315 12.749 6.53029 12.6104 5.54412 12.3354L3.26472 14.496C3.20134 14.5558 3.11554 14.5893 3.02615 14.5891ZM8.58107 0.64C4.2217 0.64 0.674878 3.21216 0.674878 6.37344C0.674878 7.96544 1.60283 9.50048 3.22153 10.5846C3.26565 10.6142 3.30165 10.6534 3.32648 10.6989C3.35132 10.7444 3.36428 10.7949 3.36427 10.8461V13.4963L5.20938 11.7466C5.25316 11.7051 5.3081 11.6759 5.3682 11.6621C5.42831 11.6482 5.49127 11.6504 5.55019 11.6682C6.53071 11.9617 7.55319 12.1097 8.58141 12.1069C12.9411 12.1069 16.4876 9.53472 16.4876 6.37344C16.4876 3.21216 12.9408 0.64 8.58107 0.64Z" fill="white"/>
<path d="M15.7998 15.9999C15.7103 15.9999 15.6245 15.9661 15.5612 15.9061L14.0245 14.4488C13.3486 14.6314 12.649 14.7233 11.9462 14.7218C9.94757 14.7218 8.07984 13.9887 6.9501 12.7608C6.8952 12.6965 6.86874 12.6145 6.87625 12.532C6.88377 12.4496 6.92469 12.3731 6.99041 12.3186C7.05614 12.2641 7.14156 12.236 7.22874 12.2399C7.31591 12.2439 7.39807 12.2798 7.45794 12.34C8.46149 13.4309 10.1389 14.0818 11.9459 14.0818C12.6485 14.0838 13.3473 13.9827 14.0174 13.7823C14.0764 13.7644 14.1394 13.7623 14.1996 13.7761C14.2598 13.7899 14.3148 13.8192 14.3586 13.8607L15.462 14.9074V13.3052C15.462 13.2539 15.4749 13.2034 15.4998 13.1579C15.5246 13.1125 15.5606 13.0733 15.6047 13.0437C16.6994 12.3103 17.3257 11.2748 17.3257 10.2028C17.3158 9.46062 17.035 8.74468 16.531 8.17684C16.5031 8.14417 16.4823 8.1066 16.4697 8.06629C16.4571 8.02598 16.453 7.98372 16.4576 7.94191C16.4623 7.9001 16.4756 7.85957 16.4967 7.82263C16.5179 7.78568 16.5465 7.75305 16.5809 7.7266C16.6505 7.67317 16.7396 7.64815 16.8287 7.65703C16.8728 7.66143 16.9155 7.67402 16.9545 7.69408C16.9934 7.71414 17.0278 7.74129 17.0557 7.77396C17.6574 8.45555 17.9913 9.31389 18.0005 10.2028C17.9798 10.8472 17.8002 11.478 17.4763 12.0448C17.1523 12.6116 16.6929 13.0986 16.1348 13.4668V15.6799C16.1348 15.7647 16.0993 15.8461 16.036 15.9062C15.9727 15.9662 15.8869 15.9999 15.7974 15.9999H15.7998Z" fill="white"/>
</svg>
